<svg xmlns:xlink="http://www.w3.org/1999/xlink" width="22" height="24" viewBox="0 0 22 24" fill="none" xmlns="http://www.w3.org/2000/svg" data-v-d2def6c0=""><path d="M3.66912 4.82401C5.67605 3.00291 8.29012 1.99594 11.0001 2.00001C14.8361 2.00001 18.2101 3.97501 20.1621 6.96901C20.3071 7.19126 20.5344 7.34684 20.794 7.4015C21.0536 7.45617 21.3244 7.40545 21.5466 7.26051C21.7689 7.11557 21.9244 6.88828 21.9791 6.62863C22.0338 6.36899 21.9831 6.09826 21.8381 5.87601C20.6643 4.07109 19.058 2.58814 17.1652 1.56194C15.2724 0.535738 13.1532 -0.00116889 11.0001 1.35539e-05C8.12211 -0.00416064 5.32565 0.955922 3.05712 2.72701L1.70712 1.37701C1.56727 1.2372 1.38911 1.142 1.19515 1.10343C1.0012 1.06486 0.800168 1.08467 0.617468 1.16034C0.434769 1.23601 0.278606 1.36415 0.168721 1.52856C0.0588371 1.69297 0.000165181 1.88626 0.000122957 2.08401V6.42201C-0.000164119 6.63768 0.069277 6.84765 0.198088 7.02062C0.326899 7.19359 0.508176 7.32028 0.71488 7.3818C0.921583 7.44332 1.14264 7.43636 1.34506 7.36197C1.54749 7.28758 1.72044 7.14974 1.83812 6.96901C2.35341 6.17834 2.96948 5.4574 3.66912 4.82401ZM13.0001 12C13.0001 12.5304 12.7894 13.0392 12.4143 13.4142C12.0393 13.7893 11.5306 14 11.0001 14C10.4697 14 9.96098 13.7893 9.58591 13.4142C9.21084 13.0392 9.00012 12.5304 9.00012 12C9.00012 11.4696 9.21084 10.9609 9.58591 10.5858C9.96098 10.2107 10.4697 10 11.0001 10C11.5306 10 12.0393 10.2107 12.4143 10.5858C12.7894 10.9609 13.0001 11.4696 13.0001 12Z" fill="#FFFFFF" data-v-d2def6c0=""></path><path fill-rule="evenodd" clip-rule="evenodd" d="M6.00012 7C5.20447 7 4.44141 7.31607 3.8788 7.87868C3.31619 8.44129 3.00012 9.20435 3.00012 10V14C3.00012 14.7956 3.31619 15.5587 3.8788 16.1213C4.44141 16.6839 5.20447 17 6.00012 17H16.0001C16.7958 17 17.5588 16.6839 18.1214 16.1213C18.6841 15.5587 19.0001 14.7956 19.0001 14V10C19.0001 9.20435 18.6841 8.44129 18.1214 7.87868C17.5588 7.31607 16.7958 7 16.0001 7H6.00012ZM5.00012 10C5.00012 9.73478 5.10548 9.48043 5.29302 9.29289C5.48055 9.10536 5.73491 9 6.00012 9H16.0001C16.2653 9 16.5197 9.10536 16.7072 9.29289C16.8948 9.48043 17.0001 9.73478 17.0001 10V14C17.0001 14.2652 16.8948 14.5196 16.7072 14.7071C16.5197 14.8946 16.2653 15 16.0001 15H6.00012C5.73491 15 5.48055 14.8946 5.29302 14.7071C5.10548 14.5196 5.00012 14.2652 5.00012 14V10Z" fill="#FFFFFF" data-v-d2def6c0=""></path><path d="M18.3312 19.176C16.3245 20.9968 13.7108 22.0038 11.0012 22C7.16418 22 3.79018 20.025 1.83818 17.032C1.76648 16.9219 1.6738 16.8271 1.56545 16.7528C1.45709 16.6786 1.33517 16.6264 1.20666 16.5993C1.07814 16.5722 0.94554 16.5707 0.81643 16.5948C0.687321 16.6189 0.564228 16.6683 0.45418 16.74C0.344132 16.8117 0.249285 16.9043 0.175053 17.0127C0.100821 17.1211 0.0486589 17.243 0.0215442 17.3715C-0.0055705 17.5 -0.00710655 17.6326 0.0170238 17.7617C0.0411541 17.8908 0.0904782 18.0139 0.16218 18.124C1.33603 19.9289 2.94234 21.4118 4.83512 22.438C6.72789 23.4642 8.84712 24.0011 11.0002 24C13.9942 24 16.7522 22.981 18.9432 21.273L20.2932 22.623C20.433 22.7628 20.6112 22.858 20.8051 22.8966C20.9991 22.9351 21.2001 22.9153 21.3828 22.8396C21.5655 22.764 21.7217 22.6358 21.8316 22.4714C21.9415 22.307 22.0001 22.1137 22.0002 21.916V17.578C22.0003 17.3624 21.9307 17.1526 21.8018 16.9798C21.6729 16.807 21.4916 16.6804 21.2849 16.619C21.0783 16.5577 20.8573 16.5647 20.655 16.6391C20.4527 16.7135 20.2798 16.8513 20.1622 17.032C19.6468 17.8223 19.0318 18.5429 18.3322 19.176H18.3312Z" fill="#FFFFFF" data-v-d2def6c0=""></path></svg>