<svg xmlns:xlink="http://www.w3.org/1999/xlink" width="20" height="20" viewBox="0 0 20 20" fill="none" xmlns="http://www.w3.org/2000/svg" data-v-d2def6c0=""><path fill-rule="evenodd" clip-rule="evenodd" d="M12 10H14C15.1046 10 16 9.10457 16 8V8C16 6.89543 15.1046 6 14 6V6C12.8954 6 12 6.89543 12 8V10ZM4 8C4 9.10457 4.89543 10 6 10H8V8C8 6.89543 7.10457 6 6 6V6C4.89543 6 4 6.89543 4 8V8ZM18 16C18 17.1046 17.1046 18 16 18V18C14.8954 18 14 17.1046 14 16V13C14 12.4477 13.5523 12 13 12V12C12.4477 12 12 11.5523 12 11V10H8V11C8 11.5523 7.55228 12 7 12V12C6.44772 12 6 12.4477 6 13V16C6 17.1046 5.10457 18 4 18V18C2.89543 18 2 17.1046 2 16V5C2 3.34315 3.34315 2 5 2H15C16.6569 2 18 3.34315 18 5V16ZM8 17C8 17.5523 8.44772 18 9 18H11C11.5523 18 12 17.5523 12 17V17C12 16.4477 11.5523 16 11 16H9C8.44772 16 8 16.4477 8 17V17ZM0 17C0 18.6569 1.34315 20 3 20H17C18.6569 20 20 18.6569 20 17V3C20 1.34315 18.6569 0 17 0H3C1.34315 0 0 1.34315 0 3V17Z" fill="#FFFFFF" data-v-d2def6c0=""></path></svg>